<svg width="967" height="100" viewBox="0 0 967 100" fill="none" xmlns="http://www.w3.org/2000/svg">
<path d="M19.7033 1.61764H131.454L111.75 27.2059H76.6077V100H46.1705V27.2059H0L19.7033 1.61764Z" fill="white"/>
<path d="M252.198 80.8824L270.284 100H229.554L207.645 73.9706H160.887V100H130.45V49.7059H216.027C225.437 49.7059 232.789 45.4412 232.789 38.6765C232.789 31.0294 226.466 27.2059 216.027 27.2059H130.45L150.3 1.61764H213.527C235.877 1.61764 264.109 8.67646 264.109 36.7647C264.109 52.0588 254.551 64.7059 238.377 67.9412C241.759 70.4412 245.435 73.9706 252.198 80.8824Z" fill="white"/>
<path d="M437.239 100H322.842L341.222 74.7059H365.924C371.806 74.7059 378.717 74.7059 383.422 75C380.775 71.4706 376.658 65.4412 373.424 60.7353L355.779 34.7059L309.608 100H273.584L336.664 11.0294C340.781 5.29411 346.809 0 356.367 0C365.483 0 371.512 4.85294 375.776 11.0294L437.239 100Z" fill="white"/>
<path d="M489.177 74.7059H558.139L538.582 100H489.177C455.064 100 429.92 78.3824 429.92 49.8529C429.92 21.0294 455.064 1.61764 489.177 1.61764H558.139L538.582 27.2059H489.177C472.709 27.2059 460.357 37.0588 460.357 51.1765C460.357 65.1471 472.562 74.7059 489.177 74.7059Z" fill="white"/>
<path d="M652.075 67.5L692.805 100H646.782L617.08 74.1176C606.934 65.2941 602.229 61.0294 598.847 57.6471C598.994 62.2059 599.288 67.0588 599.288 71.7647V100H568.704V1.61764H599.288V24.4118C599.288 30.4412 598.994 36.4706 598.7 41.6176C602.523 38.0882 607.816 33.0882 616.786 25.5882L645.164 1.61764H689.276L651.634 29.8529C638.548 39.7059 632.519 44.1176 626.196 47.9412C631.784 51.7647 639.43 57.2059 652.075 67.5Z" fill="white"/>
<path d="M733.404 74.7059H817.07L797.514 100H702.82V1.61764H816.776L797.073 27.2059H733.404V38.9706H811.335L793.838 61.3235H733.404V74.7059Z" fill="white"/>
<path d="M948.914 80.8824L967 100H926.27L904.361 73.9706H857.602V100H827.165V49.7059H912.742C922.153 49.7059 929.505 45.4412 929.505 38.6765C929.505 31.0294 923.182 27.2059 912.742 27.2059H827.165L847.016 1.61764H910.243C932.593 1.61764 960.824 8.67646 960.824 36.7647C960.824 52.0588 951.267 64.7059 935.092 67.9412C938.474 70.4412 942.15 73.9706 948.914 80.8824Z" fill="white"/>
</svg>
