<svg width="1152" height="261" viewBox="0 0 1152 261" fill="none" xmlns="http://www.w3.org/2000/svg">
<path d="M90.5661 32.6075H207.21L186.644 59.3006H149.962V135.238H118.192V59.3006H70L90.5661 32.6075Z" fill="white"/>
<path d="M333.242 115.295L352.12 135.238H309.607L286.738 108.085H237.932V135.238H206.162V82.7722H295.487C305.309 82.7722 312.983 78.3233 312.983 71.2665C312.983 63.2893 306.384 59.3006 295.487 59.3006H206.162L226.882 32.6075H292.877C316.206 32.6075 345.674 39.9711 345.674 69.2722C345.674 85.2267 335.698 98.4199 318.815 101.795C322.345 104.403 326.182 108.085 333.242 115.295Z" fill="white"/>
<path d="M526.386 135.238H406.979L426.164 108.852H451.948C458.088 108.852 465.301 108.852 470.212 109.158C467.45 105.477 463.152 99.1869 459.776 94.2778L441.358 67.1245L393.166 135.238H355.564L421.406 42.4257C425.704 36.4427 431.996 30.92 441.972 30.92C451.488 30.92 457.781 35.9825 462.232 42.4257L526.386 135.238Z" fill="white"/>
<path d="M580.598 108.852H652.58L632.167 135.238H580.598C544.991 135.238 518.746 112.687 518.746 82.9256C518.746 52.8575 544.991 32.6075 580.598 32.6075H652.58L632.167 59.3006H580.598C563.409 59.3006 550.517 69.579 550.517 84.3063C550.517 98.8801 563.255 108.852 580.598 108.852Z" fill="white"/>
<path d="M750.63 101.335L793.144 135.238H745.105L714.102 108.238C703.512 99.0335 698.601 94.5847 695.071 91.0563C695.224 95.8119 695.531 100.874 695.531 105.784V135.238H663.608V32.6075H695.531V56.3859C695.531 62.6756 695.224 68.9654 694.917 74.3347C698.908 70.6529 704.433 65.437 713.795 57.6131L743.416 32.6075H789.46L750.169 62.062C736.51 72.3404 730.217 76.9426 723.618 80.9313C729.45 84.9199 737.431 90.596 750.63 101.335Z" fill="white"/>
<path d="M835.52 108.852H922.85L902.437 135.238H803.597V32.6075H922.543L901.977 59.3006H835.52V71.5733H916.864L898.6 94.8915H835.52V108.852Z" fill="white"/>
<path d="M1060.47 115.295L1079.35 135.238H1036.83L1013.96 108.085H965.157V135.238H933.387V82.7722H1022.71C1032.53 82.7722 1040.21 78.3233 1040.21 71.2665C1040.21 63.2893 1033.61 59.3006 1022.71 59.3006H933.387L954.107 32.6075H1020.1C1043.43 32.6075 1072.9 39.9711 1072.9 69.2722C1072.9 85.2267 1062.92 98.4199 1046.04 101.795C1049.57 104.403 1053.41 108.085 1060.47 115.295Z" fill="white"/>
<path d="M922.374 185.882H922.343C913.744 185.9 906.729 192.769 906.703 201.198C906.691 205.308 908.324 209.18 911.3 212.096C914.257 214.995 918.165 216.587 922.317 216.587C922.368 216.587 922.419 216.587 922.47 216.587C931.081 216.505 938.061 209.584 938.028 201.155C937.996 192.727 930.976 185.882 922.373 185.882H922.374ZM913.1 201.109C913.153 195.902 917.164 191.982 922.436 191.982H922.455C925.005 191.986 927.329 192.923 929.004 194.62C930.68 196.318 931.599 198.672 931.591 201.248C931.584 203.79 930.638 206.137 928.929 207.859C927.229 209.57 924.921 210.512 922.428 210.512H922.397C919.894 210.503 917.554 209.539 915.812 207.797C914.038 206.025 913.076 203.65 913.102 201.109H913.1Z" fill="white"/>
<path d="M876.676 188.829C874.253 190.902 872.884 193.818 872.824 197.044C872.689 204.357 872.702 209.604 872.719 216.245V216.635H872.991C876.837 216.635 878.765 216.635 878.773 216.635L879.031 216.621V214.402C879.032 212.91 879.028 211.417 879.023 209.926C879.013 206.585 879.001 203.128 879.073 199.731C879.179 194.69 879.927 193.121 884.664 192.44L886.384 192.227L886.39 186.085L886.153 186.056C882.688 185.628 879.236 186.639 876.675 188.827L876.676 188.829Z" fill="white"/>
<path d="M944.673 188.725C942.239 190.805 940.866 193.735 940.806 196.974C940.67 204.293 940.685 209.542 940.701 216.189V216.645H940.974C944.842 216.645 946.782 216.644 946.794 216.643L947.04 216.619V214.403C947.041 212.905 947.037 211.406 947.032 209.908C947.022 206.552 947.01 203.081 947.082 199.672C947.188 194.61 947.94 193.035 952.696 192.351L954.421 192.137L954.427 185.971L954.189 185.941C950.71 185.512 947.244 186.526 944.673 188.725Z" fill="white"/>
<path d="M976.712 216.584C978.835 216.58 980.96 216.577 983.083 216.572L983.08 213.641C983.074 210.316 983.07 206.546 983.097 203.542L983.101 202.989C983.113 201.332 983.127 199.62 983.375 197.98C983.966 194.071 986.268 192.129 990.141 192.173C994.016 192.228 996.291 194.342 996.544 198.124C996.793 201.814 996.808 205.587 996.823 209.235C996.829 210.812 996.837 212.388 996.861 213.964C996.868 214.442 996.865 215.021 996.864 215.573V216.571H997.137C999.175 216.571 1000.5 216.571 1001.37 216.571C1003 216.571 1003.01 216.571 1003.01 216.571L1003.27 216.558V212.246C1003.27 208.641 1003.28 205.044 1003.26 201.558C1003.26 200.417 1003.23 199.07 1003.09 197.733C1002.44 191.657 998.861 187.59 993.012 186.282C989.14 185.418 983.754 185.575 979.893 191.122C978.298 188.741 976.243 187.224 973.628 186.488C969.48 185.32 965.28 185.899 962.104 188.074C959.007 190.195 957.124 193.602 956.797 197.666C956.459 201.878 956.493 206.668 956.528 211.299C956.54 213.015 956.514 214.993 956.505 216.581L957.052 216.584H962.901L962.936 213.515C962.928 210.037 962.921 206.095 962.96 202.857C962.981 201.027 963.003 199.133 963.338 197.339C963.934 194.154 966.063 192.323 969.331 192.181C973.505 191.999 976.087 194.166 976.424 198.124C976.761 202.121 976.728 214.66 976.724 216.076" fill="white"/>
<path d="M907.515 192.15L907.499 185.906L901.004 185.91C901.022 185.02 901.231 184.154 901.627 183.327C902.024 182.5 902.604 181.759 903.303 181.18L903.406 181.097L903.244 180.896L903.295 180.93L903.432 181.079L903.468 181.052L903.45 181.032L903.454 181.035L903.468 181.051L903.474 181.047V181.044V181.045C904.55 180.214 905.844 179.751 907.215 179.707L907.463 179.699L907.478 179.455C907.49 179.265 907.497 179.045 907.497 178.783C907.497 177.2 907.495 175.729 907.491 174.371V173.611L907.23 173.599C906.628 173.57 903.509 173.514 900.372 175.161C898.933 175.918 897.706 176.92 896.724 178.14C894.326 181.122 894.095 184.539 894.113 185.913L889.734 185.916V192.15H894.164L894.173 216.625H900.822V197.85C900.803 195.422 900.24 193.393 899.259 192.15H907.515Z" fill="white"/>
<path d="M821.478 185.975H821.454C813.191 185.988 806.376 192.701 806.259 200.94C806.248 201.719 806.234 211.637 806.224 217.528L806.218 229.92H812.876V229.708C812.873 225.918 812.876 202.171 812.899 201.205C813.004 196.322 816.745 192.654 821.612 192.654C821.627 192.654 821.643 192.654 821.658 192.654C826.27 192.676 830.071 196.491 830.131 201.161C830.15 202.914 829.673 204.597 828.749 206.029C827 208.741 823.833 209.853 821.651 209.98C820.9 210.025 818.304 210.019 816.179 210.007V210.003L815.343 210.005V216.69H817.818C817.994 216.686 818.54 216.68 821.337 216.669C825.624 216.652 829.582 215.002 832.479 212.025C835.269 209.159 836.806 205.323 836.806 201.223C836.806 201.127 836.806 201.031 836.803 200.934C836.659 192.68 829.786 185.975 821.477 185.975H821.478Z" fill="white"/>
<path d="M1006.06 201.307V201.332C1006.07 209.605 1012.85 216.432 1021.17 216.547C1021.96 216.559 1031.98 216.572 1037.93 216.581L1050.44 216.587V209.919H1050.23C1046.4 209.922 1022.42 209.919 1021.44 209.897C1016.51 209.792 1012.81 206.046 1012.81 201.173C1012.81 201.159 1012.81 201.142 1012.81 201.128C1012.83 196.51 1016.68 192.703 1021.4 192.644C1023.17 192.625 1024.87 193.103 1026.31 194.027C1029.05 195.778 1030.17 198.95 1030.3 201.135C1030.35 201.886 1030.34 204.485 1030.33 206.613H1030.33L1030.33 207.451H1037.08V204.972C1037.08 204.798 1037.07 204.249 1037.06 201.449C1037.04 197.155 1035.38 193.193 1032.37 190.292C1029.47 187.498 1025.6 185.96 1021.46 185.96C1021.36 185.96 1021.27 185.96 1021.17 185.963C1012.83 186.106 1006.06 192.989 1006.06 201.31L1006.06 201.307Z" fill="white"/>
<path d="M1062.1 216.634H1055.47C1055.47 205.271 1055.44 195.566 1055.44 185.978H1062.08C1062.08 195.499 1062.1 205.203 1062.1 216.634Z" fill="white"/>
<path d="M1055.42 177.063C1055.44 175.165 1056.88 173.764 1058.81 173.773C1060.72 173.782 1062.14 175.23 1062.12 177.141C1062.1 179.038 1060.64 180.465 1058.73 180.437C1056.81 180.409 1055.41 178.976 1055.42 177.061V177.063Z" fill="white"/>
<path d="M870.048 203.636C870.048 203.636 870.048 203.642 870.048 203.645C870.048 203.642 870.05 203.64 870.05 203.637V203.636H870.048Z" fill="white"/>
<path d="M854.57 210.741C850.48 210.741 846.88 208.209 845.511 204.477C845.394 204.158 845.631 203.819 845.975 203.819H869.824L869.851 203.649C869.982 202.845 870.048 202.032 870.048 201.233C870.048 192.813 863.104 185.963 854.57 185.963C846.036 185.963 838.76 193.146 839.105 201.843C839.39 209.017 844.819 215.123 852 216.293C859.539 217.522 866.658 213.216 869.143 206.354H862.675C860.906 209.066 857.839 210.739 854.569 210.739L854.57 210.741ZM845.509 197.992C846.878 194.26 850.478 191.726 854.569 191.726C858.66 191.726 862.26 194.26 863.628 197.992C863.745 198.31 863.508 198.648 863.166 198.648H845.972C845.63 198.648 845.392 198.31 845.509 197.992Z" fill="white"/>
<path d="M1078.82 182.33L1078.82 182.327L1078.84 182.347L1078.82 182.33Z" fill="white"/>
<path d="M1076.14 185.978C1076.14 182.437 1076.12 177.165 1076.12 173.776H1069.48C1069.48 177.178 1069.5 182.449 1069.5 185.978H1065V192.226H1069.4V192.777H1069.4V193.67C1069.4 194.516 1069.4 195.365 1069.4 196.212C1069.39 198.235 1069.39 200.33 1069.44 202.39C1069.48 204.215 1069.61 205.668 1069.85 206.963C1070.6 210.972 1072.55 213.88 1075.65 215.606C1077.08 216.403 1078.77 216.948 1080.66 217.228C1081.02 217.281 1081.38 217.308 1081.76 217.336L1082 217.355V210.826H1081.9L1081.53 210.818C1079.09 210.675 1077.09 208.917 1076.67 206.532C1076.61 206.241 1076.56 205.97 1076.54 205.706C1076.32 203.336 1076.26 200.958 1076.24 198.949V198.042C1076.24 197.97 1076.23 197.901 1076.23 197.831L1076.22 197.704C1076.15 195.458 1075.59 193.569 1074.65 192.383L1074.53 192.228H1074.52H1082V185.98H1076.14L1076.14 185.978Z" fill="white"/>
</svg>
